<mxfile host="app.diagrams.net" agent="Mozilla/5.0 (Windows NT 10.0; Win64; x64) AppleWebKit/537.36 (KHTML, like Gecko) Chrome/132.0.0.0 Safari/537.36 Edg/132.0.0.0" version="26.0.10">
  <diagram name="PÃ¡gina-1" id="oRR8QhkVCOFANLK6hMCY">
    <mxGraphModel dx="1188" dy="1792" grid="1" gridSize="10" guides="1" tooltips="1" connect="1" arrows="1" fold="1" page="1" pageScale="1" pageWidth="827" pageHeight="1169" background="#CCCCCC" math="0" shadow="0">
      <root>
        <mxCell id="0" />
        <mxCell id="1" parent="0" />
        <mxCell id="4jkYTXYnX2r9u-PObnmP-4" style="edgeStyle=orthogonalEdgeStyle;rounded=0;orthogonalLoop=1;jettySize=auto;html=1;entryX=0;entryY=0.5;entryDx=0;entryDy=0;" edge="1" parent="1" source="4jkYTXYnX2r9u-PObnmP-2" target="4jkYTXYnX2r9u-PObnmP-3">
          <mxGeometry relative="1" as="geometry" />
        </mxCell>
        <mxCell id="4jkYTXYnX2r9u-PObnmP-15" style="edgeStyle=orthogonalEdgeStyle;rounded=0;orthogonalLoop=1;jettySize=auto;html=1;entryX=0.5;entryY=0;entryDx=0;entryDy=0;" edge="1" parent="1" source="4jkYTXYnX2r9u-PObnmP-2" target="4jkYTXYnX2r9u-PObnmP-16">
          <mxGeometry relative="1" as="geometry">
            <mxPoint x="180" y="240" as="targetPoint" />
          </mxGeometry>
        </mxCell>
        <mxCell id="4jkYTXYnX2r9u-PObnmP-24" style="edgeStyle=orthogonalEdgeStyle;rounded=0;orthogonalLoop=1;jettySize=auto;html=1;entryX=0.5;entryY=1;entryDx=0;entryDy=0;" edge="1" parent="1" source="4jkYTXYnX2r9u-PObnmP-2" target="4jkYTXYnX2r9u-PObnmP-25">
          <mxGeometry relative="1" as="geometry">
            <mxPoint x="180" y="20" as="targetPoint" />
          </mxGeometry>
        </mxCell>
        <mxCell id="4jkYTXYnX2r9u-PObnmP-2" value="Vehicles&amp;nbsp;" style="rounded=1;whiteSpace=wrap;html=1;fillColor=#fff2cc;strokeColor=#d6b656;" vertex="1" parent="1">
          <mxGeometry x="120" y="80" width="120" height="60" as="geometry" />
        </mxCell>
        <mxCell id="4jkYTXYnX2r9u-PObnmP-8" style="edgeStyle=orthogonalEdgeStyle;rounded=0;orthogonalLoop=1;jettySize=auto;html=1;entryX=0;entryY=0.5;entryDx=0;entryDy=0;" edge="1" parent="1" source="4jkYTXYnX2r9u-PObnmP-3" target="4jkYTXYnX2r9u-PObnmP-10">
          <mxGeometry relative="1" as="geometry">
            <mxPoint x="620" y="110" as="targetPoint" />
          </mxGeometry>
        </mxCell>
        <mxCell id="4jkYTXYnX2r9u-PObnmP-13" style="edgeStyle=orthogonalEdgeStyle;rounded=0;orthogonalLoop=1;jettySize=auto;html=1;entryX=0;entryY=0.5;entryDx=0;entryDy=0;" edge="1" parent="1" source="4jkYTXYnX2r9u-PObnmP-3" target="4jkYTXYnX2r9u-PObnmP-14">
          <mxGeometry relative="1" as="geometry">
            <mxPoint x="580" y="180" as="targetPoint" />
          </mxGeometry>
        </mxCell>
        <mxCell id="4jkYTXYnX2r9u-PObnmP-21" style="edgeStyle=orthogonalEdgeStyle;rounded=0;orthogonalLoop=1;jettySize=auto;html=1;entryX=1;entryY=0.5;entryDx=0;entryDy=0;" edge="1" parent="1" source="4jkYTXYnX2r9u-PObnmP-3" target="4jkYTXYnX2r9u-PObnmP-19">
          <mxGeometry relative="1" as="geometry">
            <Array as="points">
              <mxPoint x="450" y="420" />
            </Array>
          </mxGeometry>
        </mxCell>
        <mxCell id="4jkYTXYnX2r9u-PObnmP-33" style="edgeStyle=orthogonalEdgeStyle;rounded=0;orthogonalLoop=1;jettySize=auto;html=1;entryX=0.75;entryY=0;entryDx=0;entryDy=0;" edge="1" parent="1" source="4jkYTXYnX2r9u-PObnmP-3" target="4jkYTXYnX2r9u-PObnmP-2">
          <mxGeometry relative="1" as="geometry">
            <Array as="points">
              <mxPoint x="420" y="60" />
              <mxPoint x="210" y="60" />
            </Array>
          </mxGeometry>
        </mxCell>
        <mxCell id="4jkYTXYnX2r9u-PObnmP-3" value="API" style="shape=process;whiteSpace=wrap;html=1;backgroundOutline=1;fillColor=#d5e8d4;strokeColor=#82b366;" vertex="1" parent="1">
          <mxGeometry x="390" y="80" width="120" height="60" as="geometry" />
        </mxCell>
        <mxCell id="4jkYTXYnX2r9u-PObnmP-5" value="Sends data" style="text;html=1;align=center;verticalAlign=middle;whiteSpace=wrap;rounded=0;" vertex="1" parent="1">
          <mxGeometry x="270" y="90" width="80" height="30" as="geometry" />
        </mxCell>
        <mxCell id="4jkYTXYnX2r9u-PObnmP-10" value="tb_gps" style="rounded=0;whiteSpace=wrap;html=1;fillColor=#dae8fc;strokeColor=#6c8ebf;" vertex="1" parent="1">
          <mxGeometry x="630" y="80" width="120" height="60" as="geometry" />
        </mxCell>
        <mxCell id="4jkYTXYnX2r9u-PObnmP-11" value="Saves" style="text;html=1;align=center;verticalAlign=middle;whiteSpace=wrap;rounded=0;" vertex="1" parent="1">
          <mxGeometry x="540" y="90" width="60" height="30" as="geometry" />
        </mxCell>
        <mxCell id="4jkYTXYnX2r9u-PObnmP-31" style="edgeStyle=orthogonalEdgeStyle;rounded=0;orthogonalLoop=1;jettySize=auto;html=1;entryX=0.75;entryY=1;entryDx=0;entryDy=0;" edge="1" parent="1" source="4jkYTXYnX2r9u-PObnmP-14" target="4jkYTXYnX2r9u-PObnmP-3">
          <mxGeometry relative="1" as="geometry">
            <Array as="points">
              <mxPoint x="690" y="230" />
              <mxPoint x="480" y="230" />
            </Array>
          </mxGeometry>
        </mxCell>
        <mxCell id="4jkYTXYnX2r9u-PObnmP-14" value="tb_vehicle_mileage " style="rounded=0;whiteSpace=wrap;html=1;fillColor=#dae8fc;strokeColor=#6c8ebf;" vertex="1" parent="1">
          <mxGeometry x="630" y="150" width="120" height="60" as="geometry" />
        </mxCell>
        <mxCell id="4jkYTXYnX2r9u-PObnmP-18" style="edgeStyle=orthogonalEdgeStyle;rounded=0;orthogonalLoop=1;jettySize=auto;html=1;entryX=0.5;entryY=0;entryDx=0;entryDy=0;" edge="1" parent="1" source="4jkYTXYnX2r9u-PObnmP-16" target="4jkYTXYnX2r9u-PObnmP-19">
          <mxGeometry relative="1" as="geometry">
            <mxPoint x="180" y="380" as="targetPoint" />
          </mxGeometry>
        </mxCell>
        <mxCell id="4jkYTXYnX2r9u-PObnmP-16" value="sends message via Kafka to depot_settings_change" style="rounded=0;whiteSpace=wrap;html=1;fillColor=#f8cecc;strokeColor=#b85450;" vertex="1" parent="1">
          <mxGeometry x="110" y="250" width="140" height="60" as="geometry" />
        </mxCell>
        <mxCell id="4jkYTXYnX2r9u-PObnmP-17" value="Change unit setting" style="text;html=1;align=center;verticalAlign=middle;whiteSpace=wrap;rounded=0;" vertex="1" parent="1">
          <mxGeometry x="70" y="165" width="110" height="30" as="geometry" />
        </mxCell>
        <mxCell id="4jkYTXYnX2r9u-PObnmP-22" style="edgeStyle=orthogonalEdgeStyle;rounded=0;orthogonalLoop=1;jettySize=auto;html=1;entryX=0.5;entryY=1;entryDx=0;entryDy=0;" edge="1" parent="1" source="4jkYTXYnX2r9u-PObnmP-19" target="4jkYTXYnX2r9u-PObnmP-3">
          <mxGeometry relative="1" as="geometry" />
        </mxCell>
        <mxCell id="4jkYTXYnX2r9u-PObnmP-19" value="tb_depot_settings" style="rounded=0;whiteSpace=wrap;html=1;fillColor=#dae8fc;strokeColor=#6c8ebf;" vertex="1" parent="1">
          <mxGeometry x="120" y="390" width="120" height="60" as="geometry" />
        </mxCell>
        <mxCell id="4jkYTXYnX2r9u-PObnmP-20" value="Change value" style="text;html=1;align=center;verticalAlign=middle;whiteSpace=wrap;rounded=0;" vertex="1" parent="1">
          <mxGeometry x="100" y="340" width="80" height="30" as="geometry" />
        </mxCell>
        <mxCell id="4jkYTXYnX2r9u-PObnmP-23" value="Api will communicate with&amp;nbsp;tb_depot_settings to convert the value when necessary" style="ellipse;whiteSpace=wrap;html=1;" vertex="1" parent="1">
          <mxGeometry x="320" y="320" width="130" height="95" as="geometry" />
        </mxCell>
        <mxCell id="4jkYTXYnX2r9u-PObnmP-26" style="edgeStyle=orthogonalEdgeStyle;rounded=0;orthogonalLoop=1;jettySize=auto;html=1;entryX=0.5;entryY=0;entryDx=0;entryDy=0;" edge="1" parent="1" source="4jkYTXYnX2r9u-PObnmP-25" target="4jkYTXYnX2r9u-PObnmP-3">
          <mxGeometry relative="1" as="geometry" />
        </mxCell>
        <mxCell id="4jkYTXYnX2r9u-PObnmP-25" value="Show mileage" style="rounded=0;whiteSpace=wrap;html=1;fillColor=#f8cecc;strokeColor=#b85450;" vertex="1" parent="1">
          <mxGeometry x="120" y="-60" width="120" height="60" as="geometry" />
        </mxCell>
        <mxCell id="4jkYTXYnX2r9u-PObnmP-28" value="Action to show mileage" style="text;html=1;align=center;verticalAlign=middle;whiteSpace=wrap;rounded=0;" vertex="1" parent="1">
          <mxGeometry x="90" y="20" width="90" height="30" as="geometry" />
        </mxCell>
        <mxCell id="4jkYTXYnX2r9u-PObnmP-32" value="Convert if necessary" style="text;html=1;align=center;verticalAlign=middle;whiteSpace=wrap;rounded=0;" vertex="1" parent="1">
          <mxGeometry x="490" y="210" width="130" height="30" as="geometry" />
        </mxCell>
        <mxCell id="4jkYTXYnX2r9u-PObnmP-34" value="Present the mileage in the UI" style="text;html=1;align=center;verticalAlign=middle;whiteSpace=wrap;rounded=0;" vertex="1" parent="1">
          <mxGeometry x="240" y="40" width="160" height="30" as="geometry" />
        </mxCell>
      </root>
    </mxGraphModel>
  </diagram>
</mxfile>
